<svg width="69" height="68" viewBox="0 0 69 68" fill="none" xmlns="http://www.w3.org/2000/svg">
<path d="M33 2C38.5875 2 43.8503 3.38922 48.4627 5.84029C48.8218 6.03109 48.801 6.54547 48.4319 6.71607L37.982 11.5461C37.5951 11.725 37.5951 12.275 37.9821 12.4538L50.5117 18.2441C50.6195 18.2939 50.7061 18.3805 50.7559 18.4883L56.5461 31.0178C56.7249 31.4048 57.275 31.4048 57.4539 31.0177L62.0416 21.0886C62.217 20.709 62.7506 20.7011 62.9272 21.0802C64.8981 25.3098 66 30.026 66 35C66 53.2254 51.2254 68 33 68C14.7746 68 0 53.2254 0 35C0 16.7746 14.7746 2 33 2Z" fill="#1E69FF"/>
<path d="M32.9869 51.4176C30.6901 51.4176 28.6468 51.0447 26.857 50.299C25.0771 49.5433 23.6801 48.5142 22.6659 47.2116C21.6517 45.9091 21.1446 44.4325 21.1446 42.782C21.1446 41.5092 21.433 40.3409 22.0097 39.277C22.5963 38.2031 23.3918 37.3132 24.396 36.6072C25.4003 35.8913 26.5239 35.4339 27.7668 35.2351V35.0263C26.1361 34.6982 24.8137 33.9077 23.7994 32.6548C22.7852 31.392 22.2781 29.9254 22.2781 28.255C22.2781 26.674 22.7405 25.267 23.6652 24.0341C24.5899 22.7912 25.8577 21.8168 27.4685 21.1108C29.0892 20.3949 30.9287 20.0369 32.9869 20.0369C35.0452 20.0369 36.8797 20.3949 38.4905 21.1108C40.1112 21.8267 41.384 22.8061 42.3087 24.049C43.2334 25.282 43.7007 26.6839 43.7107 28.255C43.7007 29.9354 43.1837 31.402 42.1595 32.6548C41.1354 33.9077 39.8229 34.6982 38.222 35.0263V35.2351C39.445 35.4339 40.5537 35.8913 41.548 36.6072C42.5523 37.3132 43.3477 38.2031 43.9344 39.277C44.531 40.3409 44.8343 41.5092 44.8442 42.782C44.8343 44.4325 44.3222 45.9091 43.308 47.2116C42.2938 48.5142 40.8918 49.5433 39.102 50.299C37.3222 51.0447 35.2838 51.4176 32.9869 51.4176ZM32.9869 46.6747C34.0111 46.6747 34.906 46.4908 35.6716 46.1229C36.4372 45.745 37.0338 45.228 37.4614 44.5717C37.8989 43.9055 38.1176 43.1399 38.1176 42.2749C38.1176 41.3899 37.8939 40.6094 37.4465 39.9332C36.999 39.2472 36.3925 38.7102 35.6269 38.3224C34.8612 37.9247 33.9813 37.7259 32.9869 37.7259C32.0026 37.7259 31.1226 37.9247 30.347 38.3224C29.5715 38.7102 28.96 39.2472 28.5125 39.9332C28.075 40.6094 27.8563 41.3899 27.8563 42.2749C27.8563 43.1399 28.07 43.9055 28.4976 44.5717C28.9252 45.228 29.5267 45.745 30.3023 46.1229C31.0779 46.4908 31.9727 46.6747 32.9869 46.6747ZM32.9869 33.0277C33.8421 33.0277 34.6027 32.8537 35.2689 32.5057C35.9351 32.1577 36.4571 31.6754 36.835 31.0589C37.2128 30.4425 37.4017 29.7315 37.4017 28.9261C37.4017 28.1307 37.2128 27.4347 36.835 26.8381C36.4571 26.2315 35.9401 25.7592 35.2838 25.4212C34.6276 25.0732 33.8619 24.8991 32.9869 24.8991C32.1219 24.8991 31.3563 25.0732 30.6901 25.4212C30.0239 25.7592 29.5019 26.2315 29.124 26.8381C28.7561 27.4347 28.5722 28.1307 28.5722 28.9261C28.5722 29.7315 28.7611 30.4425 29.1389 31.0589C29.5168 31.6754 30.0388 32.1577 30.705 32.5057C31.3712 32.8537 32.1318 33.0277 32.9869 33.0277Z" fill="white"/>
<path d="M56.5461 0.982088C56.725 0.5951 57.275 0.595098 57.4539 0.982087L60.7158 8.04012C60.7656 8.1479 60.8521 8.23443 60.9599 8.28424L68.0179 11.5461C68.4049 11.725 68.4049 12.275 68.0179 12.4539L60.9599 15.7158C60.8521 15.7656 60.7656 15.8521 60.7158 15.9599L57.4539 23.0179C57.275 23.4049 56.725 23.4049 56.5461 23.0179L53.2842 15.9599C53.2344 15.8521 53.1479 15.7656 53.0401 15.7158L45.9821 12.4539C45.5951 12.275 45.5951 11.725 45.9821 11.5461L53.0401 8.28424C53.1479 8.23443 53.2344 8.1479 53.2842 8.04012L56.5461 0.982088Z" fill="#1E69FF"/>
</svg>
