<svg width="69" height="68" viewBox="0 0 69 68" fill="none" xmlns="http://www.w3.org/2000/svg">
<path fill-rule="evenodd" clip-rule="evenodd" d="M33 2C38.5874 2 43.8503 3.38925 48.4627 5.84029C48.8218 6.03109 48.801 6.54547 48.4319 6.71607L37.982 11.5461C37.5951 11.725 37.5951 12.275 37.9821 12.4538L50.5117 18.2441C50.6195 18.2939 50.7061 18.3805 50.7559 18.4883L56.5461 31.0178C56.7249 31.4048 57.275 31.4048 57.4539 31.0177L62.0416 21.0886C62.217 20.709 62.7506 20.7011 62.9272 21.0802C64.8981 25.3098 66 30.026 66 35C66 53.2254 51.2254 68 33 68C14.7746 68 0 53.2254 0 35C3.43323e-05 16.7747 14.7747 2.00003 33 2Z" fill="#D6007C"/>
<path d="M22.2483 51V46.3466L33.1212 36.2791C34.0459 35.3842 34.8215 34.5788 35.4479 33.8629C36.0843 33.147 36.5665 32.446 36.8946 31.7599C37.2227 31.0639 37.3868 30.3132 37.3868 29.5078C37.3868 28.6129 37.183 27.8423 36.7753 27.196C36.3676 26.5398 35.8108 26.0376 35.1048 25.6896C34.3989 25.3317 33.5985 25.1527 32.7036 25.1527C31.7689 25.1527 30.9536 25.3416 30.2575 25.7195C29.5615 26.0973 29.0246 26.6392 28.6468 27.3452C28.2689 28.0511 28.08 28.8913 28.08 29.8658H21.95C21.95 27.8672 22.4024 26.1321 23.3073 24.6605C24.2121 23.1889 25.4798 22.0504 27.1105 21.245C28.7412 20.4396 30.6205 20.0369 32.7483 20.0369C34.9358 20.0369 36.8399 20.4247 38.4607 21.2003C40.0914 21.9659 41.3591 23.0298 42.2639 24.392C43.1688 25.7543 43.6212 27.3153 43.6212 29.0753C43.6212 30.2287 43.3925 31.3672 42.9351 32.4908C42.4877 33.6143 41.6872 34.8622 40.5338 36.2344C39.3804 37.5966 37.7547 39.2322 35.6567 41.1413L31.1972 45.5114V45.7202H44.0239V51H22.2483Z" fill="white"/>
<path d="M56.5461 0.982088C56.725 0.5951 57.275 0.595098 57.4539 0.982086L60.7158 8.04012C60.7656 8.1479 60.8521 8.23443 60.9599 8.28424L68.0179 11.5461C68.4049 11.725 68.4049 12.275 68.0179 12.4539L60.9599 15.7158C60.8521 15.7656 60.7656 15.8521 60.7158 15.9599L57.4539 23.0179C57.275 23.4049 56.725 23.4049 56.5461 23.0179L53.2842 15.9599C53.2344 15.8521 53.1479 15.7656 53.0401 15.7158L45.9821 12.4539C45.5951 12.275 45.5951 11.725 45.9821 11.5461L53.0401 8.28424C53.1479 8.23443 53.2344 8.1479 53.2842 8.04012L56.5461 0.982088Z" fill="#D6007C"/>
</svg>
