<svg width="69" height="68" viewBox="0 0 69 68" fill="none" xmlns="http://www.w3.org/2000/svg">
<path d="M33 2C38.5875 2 43.8503 3.38922 48.4627 5.84029C48.8218 6.03109 48.801 6.54547 48.4319 6.71607L37.982 11.5461C37.5951 11.725 37.5951 12.275 37.9821 12.4538L50.5117 18.2441C50.6195 18.2939 50.7061 18.3805 50.7559 18.4883L56.5461 31.0178C56.7249 31.4048 57.275 31.4048 57.4539 31.0177L62.0416 21.0886C62.217 20.709 62.7506 20.7011 62.9272 21.0802C64.8981 25.3098 66 30.026 66 35C66 53.2254 51.2254 68 33 68C14.7746 68 0 53.2254 0 35C0 16.7746 14.7746 2 33 2Z" fill="#1E69FF"/>
<path d="M26.1325 20.4545V51H19.6744V26.5845H19.4954L12.5004 30.9695V25.2422L20.0622 20.4545H26.1325ZM41.1688 51.6712C38.6035 51.6612 36.3961 51.0298 34.5467 49.777C32.7072 48.5241 31.2903 46.7095 30.296 44.3331C29.3116 41.9567 28.8244 39.098 28.8343 35.7571C28.8343 32.4261 29.3265 29.5874 30.3109 27.2408C31.3052 24.8942 32.7221 23.1094 34.5616 21.8864C36.411 20.6534 38.6134 20.0369 41.1688 20.0369C43.7242 20.0369 45.9217 20.6534 47.7612 21.8864C49.6106 23.1193 51.0325 24.9091 52.0268 27.2557C53.0211 29.5923 53.5133 32.4261 53.5033 35.7571C53.5033 39.108 53.0062 41.9716 52.0119 44.348C51.0275 46.7244 49.6156 48.5391 47.7761 49.7919C45.9366 51.0447 43.7342 51.6712 41.1688 51.6712ZM41.1688 46.3168C42.9188 46.3168 44.3158 45.4368 45.3599 43.6768C46.4039 41.9169 46.921 39.277 46.911 35.7571C46.911 33.4403 46.6724 31.5114 46.1951 29.9702C45.7278 28.429 45.0616 27.2706 44.1965 26.495C43.3414 25.7195 42.3322 25.3317 41.1688 25.3317C39.4288 25.3317 38.0367 26.2017 36.9927 27.9418C35.9487 29.6818 35.4217 32.2869 35.4117 35.7571C35.4117 38.1037 35.6454 40.0625 36.1127 41.6335C36.59 43.1946 37.2612 44.3679 38.1262 45.1534C38.9913 45.929 40.0055 46.3168 41.1688 46.3168Z" fill="white"/>
<path d="M56.5461 0.982088C56.725 0.5951 57.275 0.595098 57.4539 0.982087L60.7158 8.04012C60.7656 8.1479 60.8521 8.23443 60.9599 8.28424L68.0179 11.5461C68.4049 11.725 68.4049 12.275 68.0179 12.4539L60.9599 15.7158C60.8521 15.7656 60.7656 15.8521 60.7158 15.9599L57.4539 23.0179C57.275 23.4049 56.725 23.4049 56.5461 23.0179L53.2842 15.9599C53.2344 15.8521 53.1479 15.7656 53.0401 15.7158L45.9821 12.4539C45.5951 12.275 45.5951 11.725 45.9821 11.5461L53.0401 8.28424C53.1479 8.23443 53.2344 8.1479 53.2842 8.04012L56.5461 0.982088Z" fill="#1E69FF"/>
</svg>
