<svg width="69" height="68" viewBox="0 0 69 68" fill="none" xmlns="http://www.w3.org/2000/svg">
<path d="M33 2C38.5875 2 43.8503 3.38922 48.4627 5.84029C48.8218 6.03109 48.801 6.54547 48.4319 6.71607L37.982 11.5461C37.5951 11.725 37.5951 12.275 37.9821 12.4538L50.5117 18.2441C50.6195 18.2939 50.7061 18.3805 50.7559 18.4883L56.5461 31.0178C56.7249 31.4048 57.275 31.4048 57.4539 31.0177L62.0416 21.0886C62.217 20.709 62.7506 20.7011 62.9272 21.0802C64.8981 25.3098 66 30.026 66 35C66 53.2254 51.2254 68 33 68C14.7746 68 0 53.2254 0 35C0 16.7746 14.7746 2 33 2Z" fill="#1E69FF"/>
<path d="M33.0969 51.4176C30.989 51.4176 29.1097 51.0298 27.4592 50.2543C25.8185 49.4787 24.516 48.4098 23.5515 47.0476C22.587 45.6854 22.0849 44.1243 22.0451 42.3643H28.3093C28.3789 43.5476 28.8761 44.5071 29.8008 45.2429C30.7255 45.9787 31.8242 46.3466 33.0969 46.3466C34.1112 46.3466 35.006 46.1229 35.7816 45.6754C36.5671 45.218 37.1786 44.5866 37.6161 43.7812C38.0636 42.9659 38.2873 42.0312 38.2873 40.9773C38.2873 39.9034 38.0586 38.9588 37.6012 38.1435C37.1538 37.3281 36.5323 36.6918 35.7369 36.2344C34.9414 35.777 34.0316 35.5433 33.0075 35.5334C32.1126 35.5334 31.2425 35.7173 30.3974 36.0852C29.5621 36.4531 28.9109 36.9553 28.4435 37.5916L22.7013 36.5625L24.1481 20.4545H42.8214V25.7344H29.4727L28.6822 33.3857H28.8612C29.3981 32.63 30.2085 32.0036 31.2923 31.5064C32.3761 31.0092 33.5891 30.7607 34.9315 30.7607C36.771 30.7607 38.4116 31.1932 39.8533 32.0582C41.2951 32.9233 42.4336 34.1115 43.2688 35.6229C44.104 37.1243 44.5167 38.8544 44.5067 40.8132C44.5167 42.8714 44.0394 44.701 43.0749 46.3018C42.1204 47.8928 40.783 49.1456 39.0629 50.0604C37.3526 50.9652 35.364 51.4176 33.0969 51.4176Z" fill="white"/>
<path d="M56.5461 0.982088C56.725 0.5951 57.275 0.595098 57.4539 0.982087L60.7158 8.04012C60.7656 8.1479 60.8521 8.23443 60.9599 8.28424L68.0179 11.5461C68.4049 11.725 68.4049 12.275 68.0179 12.4539L60.9599 15.7158C60.8521 15.7656 60.7656 15.8521 60.7158 15.9599L57.4539 23.0179C57.275 23.4049 56.725 23.4049 56.5461 23.0179L53.2842 15.9599C53.2344 15.8521 53.1479 15.7656 53.0401 15.7158L45.9821 12.4539C45.5951 12.275 45.5951 11.725 45.9821 11.5461L53.0401 8.28424C53.1479 8.23443 53.2344 8.1479 53.2842 8.04012L56.5461 0.982088Z" fill="#1E69FF"/>
</svg>
