<svg width="69" height="68" viewBox="0 0 69 68" fill="none" xmlns="http://www.w3.org/2000/svg">
<path d="M33 2C38.5875 2 43.8503 3.38922 48.4627 5.84029C48.8218 6.03109 48.801 6.54547 48.4319 6.71607L37.982 11.5461C37.5951 11.725 37.5951 12.275 37.9821 12.4538L50.5117 18.2441C50.6195 18.2939 50.7061 18.3805 50.7559 18.4883L56.5461 31.0178C56.7249 31.4048 57.275 31.4048 57.4539 31.0177L62.0416 21.0886C62.217 20.709 62.7506 20.7011 62.9272 21.0802C64.8981 25.3098 66 30.026 66 35C66 53.2254 51.2254 68 33 68C14.7746 68 0 53.2254 0 35C0 16.7746 14.7746 2 33 2Z" fill="#1E69FF"/>
<path d="M32.6644 20.0369C34.2354 20.0369 35.7468 20.3004 37.1985 20.8274C38.6602 21.3544 39.9627 22.1946 41.1062 23.348C42.2596 24.5014 43.1694 26.0327 43.8356 27.9418C44.5117 29.8409 44.8548 32.1726 44.8647 34.9368C44.8647 37.532 44.5714 39.8487 43.9847 41.8871C43.408 43.9155 42.5778 45.6406 41.494 47.0625C40.4102 48.4844 39.1026 49.5682 37.5714 50.3139C36.0401 51.0497 34.3299 51.4176 32.4407 51.4176C30.4023 51.4176 28.6026 51.0249 27.0415 50.2393C25.4805 49.4439 24.2227 48.3651 23.2681 47.0028C22.3235 45.6307 21.7518 44.0895 21.5529 42.3793H27.9215C28.1701 43.4929 28.6921 44.358 29.4876 44.9744C30.283 45.581 31.2674 45.8842 32.4407 45.8842C34.4293 45.8842 35.9407 45.0192 36.9748 43.2891C38.0089 41.549 38.5309 39.1676 38.5408 36.1449H38.332C37.8746 37.0398 37.2582 37.8104 36.4826 38.4567C35.707 39.093 34.8171 39.5852 33.8129 39.9332C32.8185 40.2812 31.7596 40.4553 30.636 40.4553C28.8363 40.4553 27.2305 40.0327 25.8185 39.1875C24.4066 38.3423 23.293 37.179 22.4776 35.6974C21.6623 34.2159 21.2546 32.5256 21.2546 30.6264C21.2447 28.5781 21.717 26.7536 22.6715 25.1527C23.6261 23.5518 24.9585 22.299 26.6687 21.3942C28.3888 20.4794 30.3874 20.027 32.6644 20.0369ZM32.7092 25.108C31.7049 25.108 30.81 25.3466 30.0245 25.8239C29.2489 26.3011 28.6325 26.9425 28.1751 27.7479C27.7276 28.5533 27.5089 29.4531 27.5188 30.4474C27.5188 31.4517 27.7376 32.3565 28.1751 33.1619C28.6225 33.9574 29.229 34.5937 29.9947 35.071C30.7702 35.5384 31.6552 35.772 32.6495 35.772C33.3952 35.772 34.0863 35.6328 34.7227 35.3544C35.359 35.076 35.9109 34.6932 36.3782 34.206C36.8555 33.7088 37.2283 33.1371 37.4968 32.4908C37.7653 31.8445 37.8995 31.1584 37.8995 30.4325C37.8896 29.468 37.6609 28.5831 37.2134 27.7777C36.766 26.9723 36.1495 26.326 35.364 25.8388C34.5785 25.3516 33.6935 25.108 32.7092 25.108Z" fill="white"/>
<path d="M56.5461 0.982088C56.725 0.5951 57.275 0.595098 57.4539 0.982087L60.7158 8.04012C60.7656 8.1479 60.8521 8.23443 60.9599 8.28424L68.0179 11.5461C68.4049 11.725 68.4049 12.275 68.0179 12.4539L60.9599 15.7158C60.8521 15.7656 60.7656 15.8521 60.7158 15.9599L57.4539 23.0179C57.275 23.4049 56.725 23.4049 56.5461 23.0179L53.2842 15.9599C53.2344 15.8521 53.1479 15.7656 53.0401 15.7158L45.9821 12.4539C45.5951 12.275 45.5951 11.725 45.9821 11.5461L53.0401 8.28424C53.1479 8.23443 53.2344 8.1479 53.2842 8.04012L56.5461 0.982088Z" fill="#1E69FF"/>
</svg>
