<svg width="69" height="68" viewBox="0 0 69 68" fill="none" xmlns="http://www.w3.org/2000/svg">
<path d="M33 2C38.5875 2 43.8503 3.38922 48.4627 5.84029C48.8218 6.03109 48.801 6.54547 48.4319 6.71607L37.982 11.5461C37.5951 11.725 37.5951 12.275 37.9821 12.4538L50.5117 18.2441C50.6195 18.2939 50.7061 18.3805 50.7559 18.4883L56.5461 31.0178C56.7249 31.4048 57.275 31.4048 57.4539 31.0177L62.0416 21.0886C62.217 20.709 62.7506 20.7011 62.9272 21.0802C64.8981 25.3098 66 30.026 66 35C66 53.2254 51.2254 68 33 68C14.7746 68 0 53.2254 0 35C0 16.7746 14.7746 2 33 2Z" fill="#1E69FF"/>
<path d="M20.7811 45.6307V40.5447L33.5332 20.4545H37.9181V27.4943H35.323L27.2839 40.2166V40.4553H45.4054V45.6307H20.7811ZM35.4423 51V44.0795L35.5616 41.8274V20.4545H41.617V51H35.4423Z" fill="white"/>
<path d="M56.5461 0.982088C56.725 0.5951 57.275 0.595098 57.4539 0.982087L60.7158 8.04012C60.7656 8.1479 60.8521 8.23443 60.9599 8.28424L68.0179 11.5461C68.4049 11.725 68.4049 12.275 68.0179 12.4539L60.9599 15.7158C60.8521 15.7656 60.7656 15.8521 60.7158 15.9599L57.4539 23.0179C57.275 23.4049 56.725 23.4049 56.5461 23.0179L53.2842 15.9599C53.2344 15.8521 53.1479 15.7656 53.0401 15.7158L45.9821 12.4539C45.5951 12.275 45.5951 11.725 45.9821 11.5461L53.0401 8.28424C53.1479 8.23443 53.2344 8.1479 53.2842 8.04012L56.5461 0.982088Z" fill="#1E69FF"/>
</svg>
