<svg width="69" height="68" viewBox="0 0 69 68" fill="none" xmlns="http://www.w3.org/2000/svg">
<path d="M33 2C38.5875 2 43.8503 3.38922 48.4627 5.84029C48.8218 6.03109 48.801 6.54547 48.4319 6.71607L37.982 11.5461C37.5951 11.725 37.5951 12.275 37.9821 12.4538L50.5117 18.2441C50.6195 18.2939 50.7061 18.3805 50.7559 18.4883L56.5461 31.0178C56.7249 31.4048 57.275 31.4048 57.4539 31.0177L62.0416 21.0886C62.217 20.709 62.7506 20.7011 62.9272 21.0802C64.8981 25.3098 66 30.026 66 35C66 53.2254 51.2254 68 33 68C14.7746 68 0 53.2254 0 35C0 16.7746 14.7746 2 33 2Z" fill="#1E69FF"/>
<path d="M32.9236 51.4176C30.6963 51.4176 28.7126 51.0348 26.9726 50.2692C25.2425 49.4936 23.8753 48.4297 22.871 47.0774C21.8767 45.7152 21.3646 44.1442 21.3348 42.3643H27.8376C27.8774 43.1101 28.121 43.7663 28.5684 44.3331C29.0258 44.8899 29.6324 45.3224 30.3881 45.6307C31.1437 45.9389 31.9939 46.093 32.9385 46.093C33.9229 46.093 34.7929 45.919 35.5486 45.571C36.3042 45.223 36.8959 44.7408 37.3234 44.1243C37.751 43.5078 37.9648 42.7969 37.9648 41.9915C37.9648 41.1761 37.7361 40.4553 37.2787 39.8288C36.8312 39.1925 36.1849 38.6953 35.3398 38.3374C34.5045 37.9794 33.5102 37.8004 32.3568 37.8004H29.5081V33.0575H32.3568C33.3312 33.0575 34.1913 32.8885 34.9371 32.5504C35.6927 32.2124 36.2794 31.745 36.697 31.1484C37.1146 30.5419 37.3234 29.8359 37.3234 29.0305C37.3234 28.2649 37.1395 27.5938 36.7716 27.017C36.4136 26.4304 35.9065 25.973 35.2503 25.6449C34.604 25.3168 33.8483 25.1527 32.9832 25.1527C32.1082 25.1527 31.3078 25.3118 30.5819 25.63C29.8561 25.9382 29.2744 26.3807 28.8369 26.9574C28.3994 27.5341 28.1657 28.2102 28.1359 28.9858H21.9463C21.9761 27.2259 22.4782 25.6747 23.4527 24.3324C24.4271 22.9901 25.7396 21.941 27.3902 21.1854C29.0507 20.4197 30.925 20.0369 33.0131 20.0369C35.121 20.0369 36.9655 20.4197 38.5464 21.1854C40.1274 21.951 41.3554 22.9851 42.2304 24.2876C43.1153 25.5803 43.5528 27.032 43.5429 28.6428C43.5528 30.353 43.0209 31.7798 41.947 32.9233C40.8831 34.0668 39.496 34.7926 37.7858 35.1009V35.3395C40.0329 35.6278 41.7432 36.4084 42.9165 37.6811C44.0997 38.9439 44.6863 40.5249 44.6764 42.424C44.6863 44.1641 44.1842 45.7102 43.17 47.0625C42.1658 48.4148 40.7787 49.4787 39.0088 50.2543C37.2389 51.0298 35.2105 51.4176 32.9236 51.4176Z" fill="white"/>
<path d="M56.5461 0.982088C56.725 0.5951 57.275 0.595098 57.4539 0.982087L60.7158 8.04012C60.7656 8.1479 60.8521 8.23443 60.9599 8.28424L68.0179 11.5461C68.4049 11.725 68.4049 12.275 68.0179 12.4539L60.9599 15.7158C60.8521 15.7656 60.7656 15.8521 60.7158 15.9599L57.4539 23.0179C57.275 23.4049 56.725 23.4049 56.5461 23.0179L53.2842 15.9599C53.2344 15.8521 53.1479 15.7656 53.0401 15.7158L45.9821 12.4539C45.5951 12.275 45.5951 11.725 45.9821 11.5461L53.0401 8.28424C53.1479 8.23443 53.2344 8.1479 53.2842 8.04012L56.5461 0.982088Z" fill="#1E69FF"/>
</svg>
