<svg width="69" height="68" viewBox="0 0 69 68" fill="none" xmlns="http://www.w3.org/2000/svg">
<path d="M33 2C38.5875 2 43.8503 3.38922 48.4627 5.84029C48.8218 6.03109 48.801 6.54547 48.4319 6.71607L37.982 11.5461C37.5951 11.725 37.5951 12.275 37.9821 12.4538L50.5117 18.2441C50.6195 18.2939 50.7061 18.3805 50.7559 18.4883L56.5461 31.0178C56.7249 31.4048 57.275 31.4048 57.4539 31.0177L62.0416 21.0886C62.217 20.709 62.7506 20.7011 62.9272 21.0802C64.8981 25.3098 66 30.026 66 35C66 53.2254 51.2254 68 33 68C14.7746 68 0 53.2254 0 35C0 16.7746 14.7746 2 33 2Z" fill="#1E69FF"/>
<path d="M33.3356 51.4176C31.7646 51.4077 30.2482 51.1442 28.7866 50.6271C27.3349 50.1101 26.0323 49.2699 24.8789 48.1065C23.7255 46.9432 22.8107 45.402 22.1346 43.483C21.4684 41.5639 21.1353 39.2074 21.1353 36.4134C21.1452 33.848 21.4386 31.5561 22.0153 29.5376C22.6019 27.5092 23.4371 25.7891 24.521 24.3771C25.6147 22.9652 26.9222 21.8913 28.4435 21.1555C29.9648 20.4098 31.6701 20.0369 33.5593 20.0369C35.5977 20.0369 37.3974 20.4347 38.9585 21.2301C40.5195 22.0156 41.7724 23.0845 42.717 24.4368C43.6715 25.7891 44.2482 27.3054 44.4471 28.9858H38.0785C37.8299 27.9219 37.3079 27.0866 36.5124 26.4801C35.717 25.8736 34.7326 25.5703 33.5593 25.5703C31.5707 25.5703 30.0593 26.4354 29.0252 28.1655C28.0011 29.8956 27.479 32.2472 27.4592 35.2202H27.668C28.1254 34.3153 28.7418 33.5447 29.5174 32.9084C30.3029 32.2621 31.1928 31.7699 32.1871 31.4318C33.1914 31.0838 34.2504 30.9098 35.364 30.9098C37.1737 30.9098 38.7844 31.3374 40.1964 32.1925C41.6083 33.0376 42.7219 34.201 43.5373 35.6825C44.3526 37.1641 44.7603 38.8594 44.7603 40.7685C44.7603 42.8366 44.2781 44.6761 43.3136 46.2869C42.359 47.8977 41.0217 49.1605 39.3015 50.0753C37.5913 50.9801 35.6026 51.4276 33.3356 51.4176ZM33.3058 46.3466C34.3001 46.3466 35.19 46.108 35.9755 45.6307C36.761 45.1534 37.3775 44.5071 37.8249 43.6918C38.2724 42.8764 38.4961 41.9616 38.4961 40.9474C38.4961 39.9332 38.2724 39.0234 37.8249 38.218C37.3874 37.4126 36.7809 36.7713 36.0053 36.294C35.2298 35.8168 34.3448 35.5781 33.3505 35.5781C32.6048 35.5781 31.9137 35.7173 31.2773 35.9957C30.6509 36.2741 30.0991 36.6619 29.6218 37.1591C29.1545 37.6562 28.7866 38.233 28.5181 38.8892C28.2496 39.5355 28.1154 40.2266 28.1154 40.9624C28.1154 41.9467 28.3391 42.8466 28.7866 43.6619C29.244 44.4773 29.8604 45.1286 30.636 45.6158C31.4215 46.103 32.3114 46.3466 33.3058 46.3466Z" fill="white"/>
<path d="M56.5461 0.982088C56.725 0.5951 57.275 0.595098 57.4539 0.982087L60.7158 8.04012C60.7656 8.1479 60.8521 8.23443 60.9599 8.28424L68.0179 11.5461C68.4049 11.725 68.4049 12.275 68.0179 12.4539L60.9599 15.7158C60.8521 15.7656 60.7656 15.8521 60.7158 15.9599L57.4539 23.0179C57.275 23.4049 56.725 23.4049 56.5461 23.0179L53.2842 15.9599C53.2344 15.8521 53.1479 15.7656 53.0401 15.7158L45.9821 12.4539C45.5951 12.275 45.5951 11.725 45.9821 11.5461L53.0401 8.28424C53.1479 8.23443 53.2344 8.1479 53.2842 8.04012L56.5461 0.982088Z" fill="#1E69FF"/>
</svg>
