<svg width="50" height="50" viewBox="0 0 50 50" fill="none" xmlns="http://www.w3.org/2000/svg">
<path d="M16.1899 10.8936L22.917 13.5415L16.1899 16.1894L13.542 22.9165L10.8941 16.1894L4.16699 13.5415L10.8941 10.8936L13.542 4.1665L16.1899 10.8936Z" fill="white"/>
<path d="M6.25 22.9169C6.25 21.2085 6.47917 19.5523 6.90625 17.9794L8.48333 18.6002L10.4292 23.5439C10.5621 26.6052 11.6558 29.5469 13.5552 31.9513C15.4546 34.3557 18.0631 36.1008 21.0104 36.9388C23.9578 37.7768 27.0942 37.6652 29.9745 36.6197C32.8548 35.5743 35.3326 33.6481 37.0562 31.1147C38.7798 28.5813 39.6616 25.5693 39.5765 22.5063C39.4914 19.4434 38.4436 16.485 36.582 14.0512C34.7203 11.6175 32.1393 9.8319 29.2054 8.94803C26.2715 8.06416 23.1337 8.12687 20.2375 9.12728L18.6 8.48353L17.5125 5.72103C22.0011 3.70512 27.1023 3.53443 31.7156 5.2458C36.3289 6.95716 40.0846 10.4134 42.1725 14.869C44.2605 19.3245 44.5133 24.4223 42.8764 29.0625C41.2396 33.7028 37.8443 37.5137 33.4229 39.6731L35.4167 41.6669C36.5217 41.6669 37.5815 42.1059 38.3629 42.8873C39.1443 43.6687 39.5833 44.7285 39.5833 45.8335H10.4167C10.4167 44.7285 10.8557 43.6687 11.6371 42.8873C12.4185 42.1059 13.4783 41.6669 14.5833 41.6669L16.5771 39.6731C13.4718 38.1117 10.8616 35.718 9.03802 32.7591C7.21441 29.8001 6.24914 26.3926 6.25 22.9169Z" fill="white"/>
<path d="M31.25 22.9165L26.7667 21.1498L25 16.6665L23.2333 21.1498L18.75 22.9165L23.2333 24.6832L25 29.1665L26.7667 24.6832L31.25 22.9165Z" fill="white"/>
</svg>
